<?xml version="1.0" encoding="iso-8859-1"?>
<!-- Generator: Adobe Illustrator 19.0.0, SVG Export Plug-In . SVG Version: 6.00 Build 0)  -->
<svg version="1.1" id="Capa_1" xmlns="http://www.w3.org/2000/svg" xmlns:xlink="http://www.w3.org/1999/xlink" x="0px" y="0px"
	 viewBox="0 0 481.234 481.234" style="enable-background:new 0 0 481.234 481.234;" xml:space="preserve">
<g>
	<g>
		<path d="M441.225,169.226l0.016,0.008c-15.126,0.053-28.922,8.651-35.632,22.208l-101.168-36.136
			c0.528-3.331,0.796-6.699,0.8-10.072c-0.005-13.686-4.426-27.005-12.608-37.976l56.464-37.648
			c15.777,15.733,41.322,15.698,57.055-0.079c15.733-15.777,15.698-41.322-0.079-57.055c-15.777-15.733-41.322-15.698-57.055,0.079
			c-11.455,11.486-14.915,28.716-8.785,43.735l-58.808,39.2c-22.804-18.545-55.343-19.057-78.72-1.24l-24.424-30.52
			c12.764-18.446,8.157-43.747-10.29-56.511c-18.446-12.764-43.747-8.157-56.511,10.29c-12.764,18.446-8.157,43.747,10.29,56.511
			c13.442,9.301,31.149,9.637,44.935,0.854l24.48,30.592c-7.299,9.157-11.933,20.149-13.392,31.768H80.441
			c-4.418-21.645-25.547-35.61-47.192-31.192c-21.645,4.418-35.61,25.547-31.192,47.192c4.418,21.645,25.547,35.61,47.192,31.192
			c15.709-3.207,27.985-15.483,31.192-31.192h97.32c0.89,7.333,3.056,14.454,6.4,21.04L63.713,272.17
			c-18.44-12.758-43.73-8.152-56.488,10.288c-12.758,18.44-8.152,43.73,10.288,56.488c18.44,12.758,43.73,8.152,56.488-10.288
			c9.301-13.443,9.632-31.154,0.84-44.936l121.28-98.536c4.393-0.475,7.569-4.42,7.094-8.813c-0.144-1.335-0.622-2.613-1.391-3.715
			c-15.141-21.76-9.776-51.675,11.984-66.816c21.76-15.141,51.675-9.776,66.816,11.984c11.467,16.479,11.467,38.353,0,54.832
			l13.12,9.144c2.391-3.507,4.423-7.246,6.064-11.16l101.648,36.304c-0.048,0.8-0.232,1.496-0.232,2.28c0,22.091,17.909,40,40,40
			c22.091,0,40-17.909,40-40C481.225,187.135,463.316,169.226,441.225,169.226z M377.241,17.234c13.255,0,24,10.745,24,24
			s-10.745,24-24,24s-24-10.745-24-24S363.986,17.234,377.241,17.234z M145.241,65.234c-13.255,0-24-10.745-24-24s10.745-24,24-24
			s24,10.745,24,24S158.496,65.234,145.241,65.234z M41.241,169.234c-13.255,0-24-10.745-24-24s10.745-24,24-24s24,10.745,24,24
			S54.496,169.234,41.241,169.234z M41.241,329.234c-13.255,0-24-10.745-24-24s10.745-24,24-24s24,10.745,24,24
			S54.496,329.234,41.241,329.234z M441.241,233.234c-13.255,0-24-10.745-24-24s10.745-24,24-24s24,10.745,24,24
			S454.496,233.234,441.241,233.234z"/>
	</g>
</g>
<g>
	<g>
		<path d="M385.241,257.234c-9.19-0.005-17.936,3.951-24,10.856c-11.656-13.255-31.851-14.551-45.105-2.894
			c-1.026,0.902-1.992,1.869-2.895,2.894c-10.062-11.446-26.808-14.193-40-6.56V161.234c0-17.673-14.327-32-32-32
			c-17.673,0-32,14.327-32,32v128.8c-10.524-10.763-24.947-16.82-40-16.8c-4.418,0-8,3.582-8,8v144c0,2.122,0.844,4.156,2.344,5.656
			l50.344,50.344h22.624l-59.312-59.312V290.034c18.613,3.825,31.979,20.198,32,39.2v56c0,4.418,3.582,8,8,8s8-3.582,8-8v-224
			c0-8.837,7.163-16,16-16s16,7.163,16,16v144c0,4.418,3.582,8,8,8s8-3.582,8-8v-16c0-8.837,7.163-16,16-16s16,7.163,16,16v16
			c0,4.418,3.582,8,8,8s8-3.582,8-8v-16c0-8.837,7.163-16,16-16s16,7.163,16,16v16c0,4.418,3.582,8,8,8s8-3.582,8-8v-16
			c0-8.837,7.163-16,16-16s16,7.163,16,16v192h16v-192C417.241,271.561,402.914,257.234,385.241,257.234z"/>
	</g>
</g>
<g>
</g>
<g>
</g>
<g>
</g>
<g>
</g>
<g>
</g>
<g>
</g>
<g>
</g>
<g>
</g>
<g>
</g>
<g>
</g>
<g>
</g>
<g>
</g>
<g>
</g>
<g>
</g>
<g>
</g>
</svg>
