<?xml version="1.0" encoding="iso-8859-1"?>
<!-- Generator: Adobe Illustrator 19.0.0, SVG Export Plug-In . SVG Version: 6.00 Build 0)  -->
<svg version="1.1" id="Capa_1" xmlns="http://www.w3.org/2000/svg" xmlns:xlink="http://www.w3.org/1999/xlink" x="0px" y="0px"
	 viewBox="0 0 480.002 480.002" style="enable-background:new 0 0 480.002 480.002;" xml:space="preserve">
<g>
	<g>
		<path d="M240.001,168.002c-30.928,0-56,25.072-56,56c0.035,30.914,25.086,55.965,56,56c30.928,0,56-25.072,56-56
			C296.001,193.074,270.929,168.002,240.001,168.002z M240.001,264.002c-22.091,0-40-17.909-40-40c0.026-22.081,17.919-39.974,40-40
			c22.091,0,40,17.909,40,40S262.093,264.002,240.001,264.002z"/>
	</g>
</g>
<g>
	<g>
		<path d="M322.591,175.881c-15.339-27.619-43.652-45.56-75.176-47.637c-2.332-0.16-5.043-0.242-7.414-0.242
			c-9.185-0.008-18.327,1.243-27.172,3.719c-26.879,7.552-48.956,26.758-60.156,52.332c-12.172,27.062-11.59,58.151,1.586,84.738
			l78.445,174.492c1.29,2.868,4.14,4.714,7.285,4.719h0.012c3.142,0.001,5.993-1.837,7.289-4.699l78.254-172.766
			C340.468,240.481,339.36,204.949,322.591,175.881z M311.091,263.674l-71.062,156.879L168.72,261.951
			c-11.147-22.376-11.675-48.572-1.437-71.379c9.262-21.206,27.542-37.144,49.812-43.43c7.456-2.088,15.163-3.145,22.906-3.141
			c2.02,0,4.332,0.066,6.32,0.203c26.181,1.756,49.679,16.685,62.391,39.641C322.843,208.372,323.736,238.35,311.091,263.674z"/>
	</g>
</g>
<g>
	<g>
		<path d="M477.341,210.045l-69.34-62.164V32.002c0-4.418-3.582-8-8-8h-80c-4.418,0-8,3.582-8,8v29.805l-66.66-59.762
			c-3.038-2.727-7.642-2.727-10.68,0l-232,208c-3.29,2.948-3.568,8.006-0.619,11.296c1.518,1.694,3.685,2.662,5.959,2.661h64v248
			c0,4.418,3.582,8,8,8h320c4.418,0,8-3.582,8-8v-248h64c4.418,0.001,8-3.58,8.001-7.998
			C480.003,213.73,479.035,211.563,477.341,210.045z M400.001,208.002c-4.418,0-8,3.582-8,8v248h-304v-248c0-4.418-3.582-8-8-8
			H28.908L240.001,18.748l74.66,66.934c3.29,2.949,8.348,2.673,11.297-0.617c1.316-1.468,2.043-3.369,2.043-5.34V40.002h64v111.449
			c0.001,2.273,0.968,4.439,2.66,5.957l56.434,50.594H400.001z"/>
	</g>
</g>
<g>
</g>
<g>
</g>
<g>
</g>
<g>
</g>
<g>
</g>
<g>
</g>
<g>
</g>
<g>
</g>
<g>
</g>
<g>
</g>
<g>
</g>
<g>
</g>
<g>
</g>
<g>
</g>
<g>
</g>
</svg>
